PathFileType	4	(X/Y/Z)	C:\Users\Basilio\Documents\Thesis Gigler\squatting_fais\c3dfiles\038\SLS_front_pre1\markers_experimental.trc
DataRate	CameraRate	NumFrames	NumMarkers	Units	OrigDataRate	OrigDataStartFrame	OrigNumFrames
200.000000	200.000000	4	61	mm	200.000000	0	1279
Frame#	Time	FHD			LBHD			RBHD			C7			T10			CLAV			LSHO			LUUPA			LMUPA			LDUPA			LLEP			LMEP			LUL			LRFIN			RSHO			RUPA1			RMUPA			RDUPA			RLEP			RMEP			RRAD			RUL			RUFIN			LASI			RASI			USACR			LSACR			RSACR			LTHI1			LTHI2			LTHI3			LTHI4			LLFC			LMFC			LTIB1			LTIB2			LTIB3			LTIB4			LLMAL			LMMAL			LHEE			LMT1			LMT2			LMT5			RTHI			RTHI2			RTHI3			RTHI4			RLFC			RMFC			RTIB1			RTIB2			RTIB3			RTIB4			RLMAL			RMMAL			RHEE			RMT1			RMT2			RMT5			LRAD			
		X1	Y1	Z1	X2	Y2	Z2	X3	Y3	Z3	X4	Y4	Z4	X5	Y5	Z5	X6	Y6	Z6	X7	Y7	Z7	X8	Y8	Z8	X9	Y9	Z9	X10	Y10	Z10	X11	Y11	Z11	X12	Y12	Z12	X13	Y13	Z13	X14	Y14	Z14	X15	Y15	Z15	X16	Y16	Z16	X17	Y17	Z17	X18	Y18	Z18	X19	Y19	Z19	X20	Y20	Z20	X21	Y21	Z21	X22	Y22	Z22	X23	Y23	Z23	X24	Y24	Z24	X25	Y25	Z25	X26	Y26	Z26	X27	Y27	Z27	X28	Y28	Z28	X29	Y29	Z29	X30	Y30	Z30	X31	Y31	Z31	X32	Y32	Z32	X33	Y33	Z33	X34	Y34	Z34	X35	Y35	Z35	X36	Y36	Z36	X37	Y37	Z37	X38	Y38	Z38	X39	Y39	Z39	X40	Y40	Z40	X41	Y41	Z41	X42	Y42	Z42	X43	Y43	Z43	X44	Y44	Z44	X45	Y45	Z45	X46	Y46	Z46	X47	Y47	Z47	X48	Y48	Z48	X49	Y49	Z49	X50	Y50	Z50	X51	Y51	Z51	X52	Y52	Z52	X53	Y53	Z53	X54	Y54	Z54	X55	Y55	Z55	X56	Y56	Z56	X57	Y57	Z57	X58	Y58	Z58	X59	Y59	Z59	X60	Y60	Z60	X61	Y61	Z61	

1	0	-267.7619934082032	1774.364013671875	-937.5393066406252	-424.0562438964845	1721.219482421875	-995.5447998046877	-413.4099426269532	1707.667236328125	-850.3201904296877	-455.9171752929689	1522.855834960938	-922.6733398437502	-391.7557678222657	1250.566040039063	-921.1391601562502	-312.0896301269532	1534.728759765625	-936.1599731445315	-403.4143981933595	1564.739135742188	-1067.917114257813	-239.5456085205079	1510.42138671875	-1205.0517578125	-212.4747009277344	1544.406005859375	-1179.333862304688	-171.1173400878907	1519.763671875	-1214.9765625	-109.9263076782227	1522.77001953125	-1217.846313476563	-97.82727050781253	1449.371826171875	-1193.873901367188	184.8679656982422	1538.102661132813	-1203.4169921875	252.4597167968751	1554.980346679688	-1117.497802734375	-378.8725585937501	1557.160034179688	-792.3203125000002	-213.9264526367188	1536.494873046875	-679.0830078125001	-180.3416290283203	1551.319580078125	-711.4304809570314	-145.4030303955078	1537.09130859375	-663.7880249023439	-71.8026809692383	1538.925048828125	-656.5942382812501	-61.42725753784181	1461.917846679688	-675.7893066406251	200.8790588378907	1553.30126953125	-745.0698242187501	214.6962432861329	1564.5966796875	-676.2708740234376	278.3706665039063	1591.331787109375	-751.6075439453126	-224.0401611328126	1077.257690429688	-1047.028076171875	-220.5654602050782	1082.757568359375	-797.0588989257815	-392.0704345703126	1123.439086914063	-921.9434814453127	-405.5237426757814	1094.135864257813	-949.9995727539065	-403.0563049316407	1094.27099609375	-893.7679443359377	-275.0195922851563	753.9720458984376	-1111.008422851563	-247.6376342773438	673.4026489257814	-1106.9462890625	-201.1444549560547	676.1249389648439	-1085.758178710938	-277.1565246582032	624.6716918945314	-1089.38232421875	-273.8926086425782	562.6809692382814	-1084.4345703125	-258.8042602539063	547.5679931640626	-965.9440917968752	-249.9810485839844	368.2651672363282	-1027.399047851563	-297.8450622558594	334.0067443847657	-1094.797241210938	-263.3721313476563	324.9506530761719	-1066.819702148438	-278.5737609863282	245.6595916748047	-1043.387084960938	-369.5350341796876	117.3484649658203	-1070.974853515625	-328.9206542968751	128.0736541748047	-1001.350219726563	-417.7270812988282	94.54248809814455	-1017.320983886719	-217.1510009765626	48.83210372924806	-1018.125244140625	-210.8927307128907	47.74607086181641	-1069.02392578125	-257.3949279785157	34.05146789550782	-1113.610229492188	-290.3705444335938	809.705261230469	-742.1404418945314	-259.1535034179688	749.6121215820314	-736.7298583984376	-226.0099029541016	748.7345581054689	-740.2296142578126	-293.9705200195313	673.7399291992189	-756.7045288085939	-288.8010864257813	536.9582519531251	-762.6574096679689	-289.2203674316407	534.3825073242189	-884.414978027344	-249.716293334961	359.5612487792969	-787.9809570312502	-325.5303955078126	281.6221313476563	-747.8900756835939	-279.8133544921876	283.5671386718751	-759.6182861328126	-271.3610839843751	232.0808868408204	-788.7855224609377	-336.9197692871094	112.7958908081055	-757.9609985351564	-309.4082031250001	119.8779525756836	-837.0806884765627	-396.3203430175782	79.33143615722658	-819.0755004882815	-182.3691864013672	49.47431945800783	-814.0837402343752	-185.3876647949219	49.42216873168947	-767.8250732421876	-227.6912994384766	33.49470138549805	-721.8482055664064	nan	nan	nan	
2	0.005	-267.6101684570313	1774.347290039063	-937.9024658203127	-423.943817138672	1721.283935546875	-995.7645263671877	-413.2368164062501	1708.20654296875	-851.0432739257815	-455.927459716797	1522.956665039063	-922.9190063476565	-391.9234619140626	1250.580200195313	-921.3073730468752	-312.0526428222657	1534.766235351563	-936.4302978515627	-403.3757324218751	1564.789306640625	-1068.111450195313	-239.4921112060547	1510.463745117188	-1205.360473632813	-212.4414978027344	1544.437866210938	-1179.607055664063	-171.102294921875	1519.783935546875	-1215.254638671875	-109.9555206298828	1522.740112304688	-1218.13232421875	-97.87678527832034	1449.346313476563	-1194.156005859375	184.9534606933594	1538.00146484375	-1203.575927734375	252.4617309570313	1554.855590820313	-1117.653442382813	-378.7569885253907	1557.203247070313	-792.521179199219	-213.8688659667969	1536.433471679688	-679.3055419921876	-180.181381225586	1551.247192382813	-711.6757202148439	-145.144760131836	1536.96923828125	-664.0626220703126	-71.67595672607423	1538.778442382813	-656.8889770507814	-61.34022140502931	1461.7646484375	-676.1094970703126	200.9713745117188	1553.0205078125	-745.4039916992189	214.8784332275391	1564.381591796875	-676.6574707031251	278.6978759765626	1591.480224609375	-752.3715820312501	-224.1658630371094	1077.278930664063	-1047.2138671875	-220.6947784423829	1082.720092773438	-797.2339477539065	-392.2162170410157	1123.4287109375	-922.1059570312502	-405.7409667968751	1094.18212890625	-950.2301025390627	-403.3333740234376	1094.328979492188	-893.9746093750002	-274.8985595703126	753.9221801757814	-1111.116821289063	-247.5396728515626	673.4078369140626	-1107.014770507813	-201.0674743652344	676.1341552734376	-1085.796142578125	-277.0558776855469	624.6644897460939	-1089.4580078125	-273.8145141601563	562.6606445312501	-1084.496948242188	-258.9037475585938	547.5475463867189	-966.0249633789065	-249.9251403808594	368.2557983398438	-1027.340209960938	-297.7611389160157	333.9793701171876	-1094.767211914063	-263.3196105957032	324.8894958496094	-1066.7724609375	-278.5306091308594	245.6662292480469	-1043.335205078125	-369.5206604003907	117.3544692993164	-1070.951904296875	-328.8904418945313	128.090805053711	-1001.364685058594	-417.7149658203126	94.50565338134767	-1017.35205078125	-217.1101226806641	48.80539703369142	-1018.057495117188	-210.9125213623047	47.76741409301759	-1069.021118164063	-257.3533325195313	34.07926559448243	-1113.567016601563	-290.6370544433594	809.7552490234377	-742.2717895507814	-259.3738708496094	749.6312255859376	-736.7910156250001	-226.1337127685547	748.7341308593751	-740.3008422851564	-294.1506347656251	673.7484130859376	-756.7509155273439	-289.0054016113282	536.9736328125001	-762.6373901367189	-289.2084045410157	534.3463745117189	-884.4306640625002	-249.7851104736329	359.6098022460938	-787.9255981445315	-325.6311645507813	281.6139831542969	-747.9176025390626	-279.9509887695313	283.5645446777344	-759.5500488281251	-271.4246826171876	232.0674133300782	-788.6464843750002	-336.9571228027344	112.7387771606446	-757.9204101562501	-309.4414672851563	119.8940353393555	-837.0161743164065	-396.295379638672	79.27813720703126	-819.0560302734377	-182.39306640625	49.51537704467775	-814.0389404296877	-185.4320068359375	49.43428421020509	-767.8002319335939	-227.696762084961	33.49781799316407	-721.8085327148439	nan	nan	nan	
3	0.01	-267.3897094726563	1774.353149414063	-938.215270996094	-423.8928527832032	1721.38623046875	-995.9814453125002	-413.0723266601564	1708.238525390625	-851.2767333984377	-455.8981018066407	1523.078002929688	-923.1099853515627	-392.1054077148439	1250.614013671875	-921.4920043945315	-311.9382324218751	1534.724243164063	-936.6708984375002	-403.3689575195314	1564.80029296875	-1068.316528320313	-239.5648193359376	1510.5302734375	-1205.660034179688	-212.4180145263672	1544.453002929688	-1179.86279296875	-171.107177734375	1519.821899414063	-1215.498657226563	-109.9180679321289	1522.738647460938	-1218.430908203125	-97.81800842285159	1448.781982421875	-1194.482177734375	184.9157104492188	1537.86865234375	-1203.7783203125	252.4560699462891	1554.702880859375	-1117.8740234375	-378.5617980957032	1557.22900390625	-792.7305908203127	-213.7622375488282	1536.370239257813	-679.5497436523439	-180.0699768066407	1551.177490234375	-711.9372558593751	-144.9597473144532	1536.81396484375	-664.3828735351564	-71.48318481445314	1538.591430664063	-657.1411132812501	-61.29260253906251	1461.668090820313	-676.3825683593751	201.2469635009766	1552.774291992188	-745.8122558593751	215.1011047363282	1564.08935546875	-676.9496459960939	278.9028930664063	1591.20263671875	-752.6929931640626	-224.3399963378907	1077.328735351563	-1047.427490234375	-220.8012847900391	1082.685424804688	-797.5006103515627	-392.3402099609376	1123.405151367188	-922.3541259765627	-405.909149169922	1094.150146484375	-950.456481933594	-403.5860290527345	1094.342407226563	-894.2592773437502	-274.8689575195313	753.9368896484376	-1111.207397460938	-247.469955444336	673.3964843750001	-1107.086181640625	-201.0245971679688	676.1204223632814	-1085.818481445313	-277.0068054199219	624.6234741210939	-1089.564453125	-273.7197570800782	562.6364135742189	-1084.556030273438	-258.9000244140626	547.6177368164064	-966.055847167969	-249.8433837890626	368.2765808105469	-1027.296875	-297.6818237304688	333.9937744140626	-1094.783447265625	-263.2475280761719	324.8791503906251	-1066.823974609375	-278.4676208496094	245.6915435791016	-1043.275024414063	-369.4491271972657	117.3951721191407	-1070.9375	-328.8789062500001	128.137924194336	-1001.303833007813	-417.7276306152345	94.52556610107423	-1017.268859863281	-217.1234741210938	48.80422592163087	-1018.074768066406	-210.8558502197266	47.81587982177735	-1068.956420898438	-257.3383789062501	34.10417175292969	-1113.52490234375	-290.8900146484376	809.7487792968752	-742.3850708007814	-258.8368225097657	750.6284179687501	-735.7957763671876	-226.2579193115235	748.7781982421876	-740.3448486328126	-294.3555603027344	673.7545776367189	-756.8511352539064	-289.1307067871094	536.9555664062501	-762.6177978515626	-289.1989746093751	534.3236083984376	-884.469421386719	-249.870590209961	359.6221923828126	-787.8511352539065	-325.7474975585938	281.6209106445313	-747.9093017578126	-280.0753173828126	283.5567626953126	-759.4512329101564	-271.7461853027344	232.4144744873047	-788.5065917968752	-336.9458618164063	112.7261428833008	-757.8743896484376	-309.4563293457032	119.8941116333008	-836.931335449219	-396.3230285644532	79.2941360473633	-819.0112304687502	-182.4089508056641	49.54109954833986	-814.045837402344	-185.4175567626953	49.41250610351564	-767.7676391601564	-227.6874542236329	33.4649887084961	-721.7899780273439	nan	nan	nan	
4	0.015	-267.2179260253907	1774.332641601563	-938.5100708007815	-423.8112792968751	1721.4296875	-996.2089843750002	-412.9509887695314	1708.3466796875	-851.550231933594	-455.902801513672	1523.14208984375	-923.3481445312502	-392.2841796875001	1250.648681640625	-921.7068481445315	-311.9122009277344	1534.747680664063	-936.944030761719	-403.2949829101564	1564.862670898438	-1068.544555664063	-239.5390625000001	1510.596435546875	-1205.919311523438	-212.3890838623047	1544.46240234375	-1180.106811523438	-171.0742797851563	1519.80224609375	-1215.780517578125	-109.8386154174805	1522.693969726563	-1218.695434570313	-97.87151336669925	1449.276123046875	-1194.775390625	185.2796325683594	1537.6806640625	-1204.40283203125	252.463119506836	1554.5556640625	-1118.046997070313	-378.4440307617188	1557.274291992188	-792.9907836914065	-213.6273651123047	1536.29248046875	-679.7592773437501	-179.9615936279297	1551.074462890625	-712.1412963867189	-144.7522430419922	1536.663452148438	-664.6533813476564	-71.32400512695314	1538.434814453125	-657.4906005859376	-61.2643508911133	1461.566162109375	-676.7583007812501	201.4644012451172	1552.467163085938	-746.1159057617189	215.2519226074219	1563.793823242188	-677.2349243164064	279.1266479492188	1590.84423828125	-752.9952392578126	-224.5044097900391	1077.357055664063	-1047.705200195313	-220.9257354736329	1082.656127929688	-797.7102661132815	-392.4434204101564	1123.392333984375	-922.5881958007815	-406.0877075195314	1094.140747070313	-950.6636962890627	-403.7618713378907	1094.31005859375	-894.518981933594	-274.8616333007813	753.9169311523439	-1111.329956054688	-247.4344635009766	673.3996582031251	-1107.154052734375	-200.9337921142579	676.1354980468751	-1085.887329101563	-276.9462890625001	624.6142578125001	-1089.66748046875	-273.6215820312501	562.6068725585939	-1084.658569335938	-258.9561462402344	547.6066894531251	-966.1204833984377	-249.8476257324219	368.3009338378907	-1027.302856445313	-297.6448974609376	333.9368591308594	-1094.742309570313	-263.1973266601563	324.8531494140626	-1066.779907226563	-278.4857788085938	245.7072906494141	-1043.250244140625	-369.4490966796876	117.4318618774414	-1070.922485351563	-328.8394165039063	128.1697082519532	-1001.294006347656	-417.7154541015626	94.5469436645508	-1017.277770996094	-217.1303100585938	48.70360946655275	-1018.012268066406	-210.8324737548829	47.83831024169923	-1068.978759765625	-257.3315429687501	34.14690399169923	-1113.49169921875	-291.1634216308594	809.8010864257815	-742.5412597656251	-259.1257934570313	750.6516113281251	-735.8179931640626	-226.5085601806641	748.8320922851564	-740.3442382812501	-294.5331726074219	673.7805786132814	-756.9841308593751	-289.3543701171876	536.9594726562501	-762.6148681640626	-289.2318420410157	534.2584228515626	-884.4874267578127	-249.9431457519532	359.6515197753907	-787.815124511719	-325.8638000488282	281.6187744140626	-747.8642578125001	-280.2236633300782	283.5729370117188	-759.3233032226564	-271.5317382812501	232.0782012939454	-788.4824218750002	-337.0046081542969	112.6667175292969	-757.8095703125001	-309.5110473632813	119.914421081543	-836.8463134765627	-396.3142395019532	79.26113128662111	-818.998229980469	-182.4282989501953	49.54613113403322	-814.0053710937502	-185.4389343261719	49.40719985961915	-767.7097167968751	-227.6831054687501	33.45886993408204	-721.7253417968751	nan	nan	nan	
